<?xml version="1.0" encoding="iso-8859-1"?>
<!-- Generator: Adobe Illustrator 19.0.0, SVG Export Plug-In . SVG Version: 6.00 Build 0)  -->
<svg version="1.1" id="&#x421;&#x43B;&#x43E;&#x439;_1"
	 xmlns="http://www.w3.org/2000/svg" xmlns:xlink="http://www.w3.org/1999/xlink" x="0px" y="0px" viewBox="0 0 100 100"
	 style="enable-background:new 0 0 100 100;" xml:space="preserve">
<g id="XMLID_302_">
	<circle id="XMLID_307_" style="fill:#FFC107;" cx="28.228" cy="37.614" r="12.377"/>
	<path id="XMLID_303_" style="fill:#FFC107;" d="M53.335,36.842l-6.808-6.808l0-9.627c0-0.601-0.491-1.092-1.092-1.092h-9.627
		L29,12.507c-0.425-0.425-1.12-0.425-1.544,0l-6.808,6.808l-9.627,0c-0.601,0-1.092,0.491-1.092,1.092l0,9.627l-6.808,6.807
		c-0.425,0.425-0.425,1.12,0,1.544l6.808,6.808l0,9.627c0,0.601,0.491,1.092,1.092,1.092h9.627l6.808,6.808
		c0.425,0.425,1.12,0.425,1.544,0l6.808-6.808l9.627,0c0.601,0,1.092-0.491,1.092-1.092l0-9.627l6.808-6.807
		C53.759,37.962,53.759,37.267,53.335,36.842z M28.228,54.261c-9.179,0-16.647-7.468-16.647-16.647s7.468-16.647,16.647-16.647
		s16.647,7.468,16.647,16.647S37.407,54.261,28.228,54.261z"/>
</g>
<path id="XMLID_309_" style="fill:#FFFFFF;" d="M63.774,15.359c-16.622,0-30.627,11.195-34.892,26.456
	c-1.779-0.434-3.638-0.666-5.551-0.666C10.446,41.148,0,51.594,0,64.48s10.446,23.331,23.331,23.331c7.051,0,31.805,0,40.443,0
	C83.781,87.811,100,71.592,100,51.585S83.781,15.359,63.774,15.359z"/>
</svg>
