<?xml version="1.0" encoding="iso-8859-1"?>
<!-- Generator: Adobe Illustrator 19.0.0, SVG Export Plug-In . SVG Version: 6.00 Build 0)  -->
<svg version="1.1" id="&#x421;&#x43B;&#x43E;&#x439;_1"
	 xmlns="http://www.w3.org/2000/svg" xmlns:xlink="http://www.w3.org/1999/xlink" x="0px" y="0px" viewBox="0 0 283.46 283.46"
	 style="enable-background:new 0 0 283.46 283.46;" xml:space="preserve">
<g id="XMLID_8_">
	<circle id="XMLID_10_" style="fill:#FFC107;" cx="142" cy="142" r="69.125"/>
	<path id="XMLID_14_" style="fill:#FFC107;" d="M282.221,137.687l-38.02-38.02l0-53.769c0-3.355-2.745-6.099-6.099-6.099h-53.769
		l-38.02-38.02c-2.372-2.372-6.254-2.372-8.625,0l-38.021,38.02l-53.768,0c-3.354,0-6.099,2.745-6.099,6.099l0,53.769l-38.02,38.02
		c-2.372,2.372-2.372,6.254,0,8.625l38.02,38.02l0,53.769c0,3.354,2.745,6.099,6.099,6.099h53.769l38.02,38.02
		c2.372,2.372,6.254,2.372,8.625,0l38.021-38.02l53.769,0c3.354,0,6.099-2.745,6.099-6.099l0-53.769l38.02-38.02
		C284.593,143.941,284.593,140.059,282.221,137.687z M142,234.971c-51.265,0-92.972-41.707-92.972-92.971
		c0-51.264,41.707-92.971,92.972-92.971S234.972,90.736,234.972,142C234.972,193.264,193.265,234.971,142,234.971z"/>
</g>
</svg>
